<svg xmlns="http://www.w3.org/2000/svg" width="1200" height="820" viewBox="0 0 1200 820" role="img" aria-label="Original leaf mock photo">
  <defs>
    <linearGradient id="bg" x1="0" y1="0" x2="1" y2="1">
      <stop offset="0" stop-color="#d8f1df"/>
      <stop offset="0.55" stop-color="#eff8e9"/>
      <stop offset="1" stop-color="#cce6d7"/>
    </linearGradient>
    <linearGradient id="leaf" x1="0" y1="0" x2="1" y2="1">
      <stop offset="0" stop-color="#97d36f"/>
      <stop offset="0.55" stop-color="#4ca66f"/>
      <stop offset="1" stop-color="#1f6f4c"/>
    </linearGradient>
    <filter id="shadow" x="-20%" y="-20%" width="140%" height="140%">
      <feDropShadow dx="0" dy="24" stdDeviation="18" flood-color="#244a34" flood-opacity="0.25"/>
    </filter>
  </defs>
  <rect width="1200" height="820" fill="url(#bg)"/>
  <path d="M83 609C217 512 303 335 497 262c154-58 325-43 536 32-144 140-302 246-477 286-159 36-305 21-473 29z" fill="#b8df93" opacity="0.42"/>
  <path d="M153 579C273 440 360 231 574 157c176-61 355-4 502 96-118 177-289 320-497 383-176 53-317 1-426-57z" fill="url(#leaf)" filter="url(#shadow)"/>
  <path d="M203 563c233-86 490-207 803-306" fill="none" stroke="#e8f5bc" stroke-width="18" stroke-linecap="round" opacity="0.68"/>
  <path d="M344 510c-9-58-4-121 13-188M487 455c-21-74-13-139 18-202M630 395c-10-73 7-128 51-180M767 343c4-51 29-88 76-111" fill="none" stroke="#d9ef9d" stroke-width="9" stroke-linecap="round" opacity="0.56"/>
  <path d="M314 591c-18 57-48 105-91 146M492 636c-2 59-17 113-46 161M662 624c17 55 21 108 14 160M835 559c34 44 56 91 66 142" fill="none" stroke="#1e5d40" stroke-width="8" stroke-linecap="round" opacity="0.28"/>
  <circle cx="914" cy="238" r="22" fill="#ffe08a" opacity="0.5"/>
  <text x="64" y="92" fill="#22563c" font-family="Arial, sans-serif" font-size="38" font-weight="700">Original leaf image mock</text>
</svg>
